<svg xmlns="http://www.w3.org/2000/svg" viewBox="0 0 72 72"><path fill="#5865f2" d="M0 0h72v72H0z"/><path d="M48.508 24.542a29.719 29.719 0 00-7.335-2.275.111.111 0 00-.118.056 20.702 20.702 0 00-.914 1.876 27.436 27.436 0 00-8.239 0c-.245-.59-.609-1.313-.927-1.876a.116.116 0 00-.118-.056 29.636 29.636 0 00-7.336 2.275.105.105 0 00-.048.042c-4.672 6.98-5.952 13.788-5.324 20.512a.124.124 0 00.047.085 29.885 29.885 0 008.999 4.549.117.117 0 00.126-.042 21.36 21.36 0 001.841-2.994.114.114 0 00-.062-.159 19.68 19.68 0 01-2.811-1.34.116.116 0 01-.012-.192c.19-.141.378-.288.558-.437a.111.111 0 01.117-.016c5.898 2.693 12.283 2.693 18.111 0a.111.111 0 01.118.014c.18.15.37.298.56.44a.116.116 0 01-.01.191c-.898.525-1.83.968-2.812 1.339a.115.115 0 00-.062.16 23.983 23.983 0 001.84 2.993c.028.04.08.057.126.043 2.945-.911 5.931-2.286 9.014-4.55a.116.116 0 00.047-.082c.751-7.774-1.26-14.527-5.329-20.513a.092.092 0 00-.047-.043zm-18.465 16.46c-1.776 0-3.239-1.63-3.239-3.632 0-2.002 1.435-3.632 3.239-3.632 1.818 0 3.267 1.644 3.239 3.632 0 2.002-1.435 3.632-3.239 3.632zm11.975 0c-1.776 0-3.239-1.63-3.239-3.632 0-2.002 1.435-3.632 3.239-3.632 1.818 0 3.267 1.644 3.239 3.632 0 2.002-1.42 3.632-3.24 3.632z" fill="#fff"/></svg>