<svg xmlns="http://www.w3.org/2000/svg" viewBox="0 0 72 72" style="enable-background:new 0 0 72 72" xml:space="preserve"><linearGradient id="a" gradientUnits="userSpaceOnUse" x1="36" y1="72" x2="36" y2="0"><stop offset="0" style="stop-color:#5142c5"/><stop offset="1" style="stop-color:#6269f5"/></linearGradient><path style="fill:url(#a)" d="M0 0h72v72H0z"/><path d="M52.946 34.286c0 .226-.033 2.289-.046 2.506-.354 5.53-3.832 7.714-7.487 8.41-.05.014-.107.024-.165.035-2.317.449-4.8.568-7.154.634-.563.014-1.125.014-1.688.014-2.342.001-4.675-.274-6.951-.818a.08.08 0 0 0-.093.044.078.078 0 0 0-.006.036c.064.735.225 1.458.479 2.151.315.802 1.417 2.729 5.512 2.729 2.38.004 4.752-.27 7.067-.819a.081.081 0 0 1 .09.043c.006.01.01.022.01.034V52a.084.084 0 0 1-.035.066c-.757.543-1.786.853-2.663 1.13-.388.12-.781.227-1.179.318a20.13 20.13 0 0 1-10.89-.57c-3.275-1.138-6.617-3.931-7.443-7.287a39.293 39.293 0 0 1-.93-5.523c-.258-2.8-.28-5.608-.39-8.42-.077-1.961-.033-4.099.385-6.027.869-3.916 4.45-6.656 8.37-7.23.68-.1 1.962-.464 7.935-.464h.045c5.972 0 8.55.364 9.23.464 4.033.59 7.435 3.64 7.96 7.51.286 2.874.039 7.553.037 8.32zm-5.658-4.136c0-1.966-.506-3.526-1.518-4.682-1.047-1.154-2.416-1.746-4.114-1.746-1.963 0-3.45.75-4.44 2.247l-.959 1.591-.956-1.59c-.99-1.499-2.477-2.248-4.444-2.248-1.7 0-3.069.592-4.112 1.746-1.012 1.157-1.518 2.717-1.518 4.682v9.613h3.84v-9.33c.001-1.964.835-2.966 2.505-2.966 1.846 0 2.773 1.185 2.773 3.526V36.1h3.82v-5.107c0-2.341.925-3.526 2.771-3.526 1.68 0 2.506 1.002 2.506 2.966v9.33h3.843l.003-9.613z" style="fill:#fff"/></svg>