<?xml version="1.0" encoding="utf-8"?>
<!-- Generator: Adobe Illustrator 23.0.3, SVG Export Plug-In . SVG Version: 6.00 Build 0)  -->
<svg version="1.1" id="Layer_1" xmlns="http://www.w3.org/2000/svg" xmlns:xlink="http://www.w3.org/1999/xlink" x="0px" y="0px"
	 viewBox="0 0 72 72" style="enable-background:new 0 0 72 72;" xml:space="preserve">
<style type="text/css">
	.st0{fill:#C8232C;}
	.st1{fill:#FFFFFF;}
</style>
<g id="Twitter">
	<rect class="st0" width="72" height="72"/>
</g>
<g id="Guides">
</g>
<g>
	<g>
		<path class="st1" d="M36.5,18c-9.9,0-15.1,6.3-15.1,13.2c0,3.2,1.8,7.2,4.6,8.4c0.4,0.2,0.7,0.1,0.8-0.3c0.1-0.3,0.5-1.8,0.6-2.5
			c0.1-0.2,0-0.4-0.2-0.6c-0.9-1.1-1.7-3.1-1.7-5c0-4.8,3.8-9.5,10.3-9.5c5.6,0,9.6,3.7,9.6,8.9c0,5.9-3.1,10-7.2,10
			c-2.2,0-3.9-1.8-3.4-3.9c0.6-2.6,1.9-5.4,1.9-7.3c0-1.7-0.9-3.1-2.9-3.1c-2.3,0-4.1,2.3-4.1,5.3c0,1.9,0.7,3.2,0.7,3.2
			s-2.3,9.1-2.7,10.9c-0.7,2.9,0.1,7.6,0.2,8c0,0.2,0.3,0.3,0.4,0.1c0.2-0.3,3-4.2,3.7-7c0.3-1,1.4-5.2,1.4-5.2
			c0.8,1.4,2.9,2.5,5.2,2.5c6.9,0,11.9-6.1,11.9-13.6C50.6,23.4,44.4,18,36.5,18z"/>
	</g>
</g>
</svg>
