<?xml version="1.0" encoding="utf-8"?>
<!-- Generator: Adobe Illustrator 23.0.3, SVG Export Plug-In . SVG Version: 6.00 Build 0)  -->
<svg version="1.1" id="Layer_1" xmlns="http://www.w3.org/2000/svg" xmlns:xlink="http://www.w3.org/1999/xlink" x="0px" y="0px"
	 viewBox="0 0 72 72" style="enable-background:new 0 0 72 72;" xml:space="preserve">
<style type="text/css">
	.st0{fill:#FF4301;}
	.st1{fill:#FFFFFF;}
</style>
<g id="Twitter">
	<rect class="st0" width="72" height="72"/>
</g>
<g id="Guides">
</g>
<path class="st1" d="M54,36.3c0-2.2-1.8-3.9-3.9-3.9c-1.1,0-2,0.4-2.7,1.1c-2.7-1.9-6.4-3.2-10.5-3.3l1.8-8.4l5.9,1.2
	c0.1,1.5,1.3,2.7,2.8,2.7c1.6,0,2.8-1.3,2.8-2.8c0-1.6-1.3-2.8-2.8-2.8c-1.1,0-2.1,0.6-2.5,1.6l-6.5-1.4c-0.2,0-0.4,0-0.5,0.1
	c-0.2,0.1-0.3,0.3-0.3,0.4c0,0-2,9.4-2,9.4c-4.2,0.1-8,1.4-10.7,3.3c-0.7-0.7-1.7-1.1-2.7-1.1c-2.2,0-3.9,1.8-3.9,3.9
	c0,1.6,1,3,2.3,3.6c-0.1,0.4-0.1,0.8-0.1,1.2c0,6.1,7.1,11,15.8,11c8.7,0,15.8-4.9,15.8-11c0-0.4,0-0.8-0.1-1.2
	C53,39.3,54,37.9,54,36.3z M27,39.1c0-1.6,1.3-2.8,2.8-2.8c1.6,0,2.8,1.3,2.8,2.8c0,1.6-1.3,2.8-2.8,2.8C28.2,41.9,27,40.6,27,39.1z
	 M42.7,46.5c-1.9,1.9-5.6,2.1-6.7,2.1c-1.1,0-4.8-0.2-6.7-2.1c-0.3-0.3-0.3-0.7,0-1c0.3-0.3,0.7-0.3,1,0c1.2,1.2,3.8,1.6,5.7,1.6
	c1.8,0,4.4-0.4,5.7-1.6c0.3-0.3,0.7-0.3,1,0C43,45.8,43,46.2,42.7,46.5z M42.2,41.9c-1.6,0-2.8-1.3-2.8-2.8c0-1.6,1.3-2.8,2.8-2.8
	s2.8,1.3,2.8,2.8C45,40.6,43.7,41.9,42.2,41.9z"/>
</svg>
