<svg version="1.1" id="Layer_1" xmlns="http://www.w3.org/2000/svg" x="0" y="0" viewBox="0 0 92 53.4" xml:space="preserve"><style>.st0{fill:#3673fd}</style><path class="st0" d="M53.7 22.5c-.2-1.5-1.6-2.5-3.1-2.2-1.5.2-2.5 1.6-2.3 3.1a20.53 20.53 0 01-20.2 23.9C16.8 47.3 7.6 38 7.6 26.7S16.8 6.2 28.1 6.2c3.2 0 6.3.7 9.2 2.2 1.4.7 3 .1 3.7-1.2.7-1.3.1-3-1.2-3.7C36.2 1.7 32.3.8 28.2.8A25.9 25.9 0 1054 26.7c0-1.4-.1-2.9-.3-4.2z" id="Link_x5F_1_2_"/><path class="st0" d="M63.6.8a25.9 25.9 0 00-25.9 25.9c0 1.4.1 2.8.3 4.2.2 1.5 1.6 2.5 3.1 2.3 1.5-.2 2.5-1.6 2.3-3.1-.2-1.1-.3-2.2-.3-3.3 0-11.3 9.2-20.5 20.5-20.5S84 15.4 84 26.7s-9.2 20.5-20.5 20.5c-3.2 0-6.3-.7-9.2-2.2-1.3-.7-3-.1-3.7 1.2-.7 1.3-.1 3 1.2 3.7 3.6 1.8 7.5 2.7 11.6 2.7a25.9 25.9 0 0025.9-25.9A25.6 25.6 0 0063.6.8z" id="Link_x5F_1_1_"/></svg>