<?xml version="1.0" encoding="utf-8"?>
<!-- Generator: Adobe Illustrator 23.0.3, SVG Export Plug-In . SVG Version: 6.00 Build 0)  -->
<svg version="1.1" id="Layer_1" xmlns="http://www.w3.org/2000/svg" xmlns:xlink="http://www.w3.org/1999/xlink" x="0px" y="0px"
	 viewBox="0 0 72 72" style="enable-background:new 0 0 72 72;" xml:space="preserve">
<style type="text/css">
	.st0{fill:#2EBD59;}
</style>
<g id="Twitter">
	<rect width="72" height="72"/>
</g>
<g id="Guides">
</g>
<path class="st0" d="M36,18c-9.9,0-18,8-18,18s8,18,18,18s18-8,18-18C54,26,45.9,18,36,18z M44.2,43.9c-0.3,0.5-1,0.7-1.5,0.4
	c-4.2-2.6-9.5-3.2-15.8-1.7c-0.6,0.1-1.2-0.2-1.3-0.8c-0.1-0.6,0.2-1.2,0.8-1.3c6.8-1.6,12.7-0.9,17.4,2
	C44.4,42.7,44.6,43.4,44.2,43.9z M46.4,39c-0.4,0.7-1.3,0.9-1.9,0.5c-4.8-3-12.2-3.8-17.9-2.1c-0.7,0.2-1.5-0.2-1.7-0.9
	c-0.2-0.7,0.2-1.5,0.9-1.7c6.5-2,14.6-1,20.2,2.4C46.6,37.5,46.8,38.4,46.4,39L46.4,39z M46.6,33.9c-5.8-3.4-15.3-3.8-20.9-2.1
	c-0.9,0.3-1.8-0.2-2.1-1.1c-0.3-0.9,0.2-1.8,1.1-2.1c6.3-1.9,16.9-1.6,23.6,2.4c0.8,0.5,1.1,1.5,0.6,2.3
	C48.5,34.1,47.4,34.4,46.6,33.9z"/>
</svg>
