<?xml version="1.0" encoding="utf-8"?>
<!-- Generator: Adobe Illustrator 23.0.4, SVG Export Plug-In . SVG Version: 6.00 Build 0)  -->
<svg version="1.1" id="Layer_1" xmlns="http://www.w3.org/2000/svg" xmlns:xlink="http://www.w3.org/1999/xlink" x="0px" y="0px"
	 viewBox="0 0 72 72" style="enable-background:new 0 0 72 72;" xml:space="preserve">
<style type="text/css">
	.st0{fill:#171A21;}
	.st1{fill:#C6C4C2;}
</style>
<g id="Twitter">
	<rect class="st0" width="72" height="72"/>
</g>
<g id="Guides">
</g>
<path class="st1" d="M36,17.9c-9.5,0-17.3,7.4-18,16.8l9.7,4c0.8-0.6,1.8-0.9,2.9-0.9c0.1,0,0.2,0,0.3,0l4.3-6.3v-0.1
	c0-3.8,3.1-6.9,6.8-6.9c3.8,0,6.8,3.1,6.8,6.9c0,3.8-3.1,6.9-6.8,6.9c-0.1,0-0.1,0-0.2,0l-6.1,4.4c0,0.1,0,0.2,0,0.2
	c0,2.8-2.3,5.2-5.1,5.2c-2.5,0-4.5-1.8-5-4.1l-6.9-2.9c2.1,7.7,9.1,13.3,17.4,13.3c10,0,18.1-8.2,18.1-18.2
	C54.1,26.1,46,17.9,36,17.9z M29.3,45.6l-2.2-0.9c0.4,0.8,1.1,1.5,2,1.9c2,0.8,4.2-0.1,5-2.1c0.4-0.9,0.4-2,0-3
	c-0.4-1-1.1-1.7-2.1-2.1c-0.9-0.4-1.9-0.4-2.8,0l2.3,1c1.4,0.6,2.1,2.3,1.5,3.7C32.4,45.5,30.8,46.2,29.3,45.6L29.3,45.6z
	 M46.5,31.4c0-2.5-2-4.6-4.5-4.6c-2.5,0-4.5,2.1-4.5,4.6c0,2.5,2,4.6,4.5,4.6C44.5,36,46.5,34,46.5,31.4z M38.6,31.4
	c0-1.9,1.5-3.4,3.4-3.4c1.9,0,3.4,1.5,3.4,3.4c0,1.9-1.5,3.4-3.4,3.4C40.1,34.9,38.6,33.3,38.6,31.4L38.6,31.4z"/>
</svg>
