<svg xmlns="http://www.w3.org/2000/svg" xmlns:xlink="http://www.w3.org/1999/xlink" id="Layer_1" x="0" y="0" version="1.1" viewBox="0 0 72 72" style="enable-background:new 0 0 72 72" xml:space="preserve"><style type="text/css">.st0{fill:#0e7c12}.st1{fill:#fff}</style><g id="Twitter"><rect width="72" height="72" class="st0"/></g><g id="g4146" transform="translate(-1.5706619,12.357467)"><path id="path4148" d="M35.8,41.6c-2.8-0.3-5.6-1.3-8-2.8c-2-1.3-2.5-1.9-2.5-2.9c0-2.2,2.4-6,6.5-10.3 c2.3-2.5,5.6-5.4,5.9-5.3c0.7,0.2,6.1,5.5,8.1,7.9c3.2,3.9,4.7,7.2,3.9,8.6c-0.6,1.1-4.1,3.2-6.7,4.1 C40.9,41.5,38.1,41.8,35.8,41.6L35.8,41.6z M22.6,33.5c-1.7-2.6-2.5-5.1-2.9-8.8c-0.1-1.2-0.1-1.9,0.3-4.4c0.5-3.1,2.3-6.7,4.4-8.9 c0.9-0.9,1-1,2.1-0.6c1.3,0.5,2.8,1.4,5,3.4l1.3,1.2L32,16.4c-3.3,4-6.7,9.7-8,13.3c-0.7,1.9-1,3.8-0.7,4.6 C23.5,34.8,23.3,34.6,22.6,33.5z M52.1,34c0.2-0.8,0-2.3-0.5-3.8c-1.1-3.2-4.6-9.3-7.9-13.4l-1-1.3l1.1-1c1.5-1.3,2.5-2.1,3.6-2.8 c0.9-0.5,2.1-1,2.6-1c0.3,0,1.5,1.2,2.4,2.5c1.4,2,2.5,4.4,3,7c0.3,1.6,0.4,5.1,0.1,6.8c-0.3,1.3-0.8,3.1-1.4,4.3 c-0.4,0.9-1.4,2.6-1.8,3.2C51.9,34.6,51.9,34.6,52.1,34L52.1,34z M36.1,10c-1.5-0.8-3.8-1.6-5.1-1.8c-0.5-0.1-1.2-0.1-1.7-0.1 c-1.1,0.1-1,0,0.7-0.8c1.4-0.7,2.6-1.1,4.2-1.4c1.8-0.4,5.2-0.4,7,0c1.9,0.4,4.2,1.2,5.4,2l0.4,0.2l-0.9,0C44.3,8,41.8,8.7,39.1,10 c-0.8,0.4-1.5,0.7-1.6,0.7C37.5,10.7,36.8,10.4,36.1,10z" class="st1"/></g></svg>