<svg xmlns="http://www.w3.org/2000/svg" xmlns:xlink="http://www.w3.org/1999/xlink" id="Layer_1" x="0" y="0" version="1.1" viewBox="0 0 72 72" style="enable-background:new 0 0 72 72" xml:space="preserve"><style type="text/css">.st0{fill:#c4302b}.st1{fill:#fff}</style><g id="Twitter"><rect width="72" height="72" class="st0"/></g><path d="M53.3,27.3c-0.4-1.5-1.6-2.8-3.2-3.2C47.3,23.4,36,23.4,36,23.4s-11.3,0-14.1,0.7c-1.5,0.4-2.8,1.7-3.2,3.2	C18,30.2,18,36,18,36s0,5.9,0.7,8.7c0.4,1.5,1.6,2.8,3.2,3.2c2.8,0.8,14.1,0.8,14.1,0.8s11.3,0,14.1-0.7c1.5-0.4,2.8-1.6,3.2-3.2	C54,41.9,54,36,54,36S54,30.2,53.3,27.3z M32.4,41.4V30.6l9.4,5.4L32.4,41.4z" class="st1"/></svg>