<svg xmlns="http://www.w3.org/2000/svg" width="256" height="256" fill="none" viewBox="0 0 256 256"><rect width="256" height="256" fill="#242938" rx="60"/><path fill="#CB3C33" d="M118.509 177.431C118.509 203.866 97.3497 225.282 71.2544 225.282C45.1484 225.282 24 203.866 24 177.431C24 151.006 45.1484 129.58 71.2544 129.58C97.3497 129.58 118.509 151.006 118.509 177.431Z"/><path fill="#9558B2" d="M232.046 177.431C232.046 203.866 210.887 225.282 184.791 225.282C158.696 225.282 137.537 203.866 137.537 177.431C137.537 151.006 158.696 129.58 184.791 129.58C210.887 129.58 232.046 151.006 232.046 177.431Z"/><path fill="#389826" d="M175.288 77.8511C175.288 104.276 154.129 125.702 128.033 125.702C101.927 125.702 80.7791 104.276 80.7791 77.8511C80.7791 51.4262 101.927 30 128.033 30C154.129 30 175.288 51.4262 175.288 77.8511Z"/></svg>